<?xml version="1.0" encoding="UTF-8" standalone="no"?>
<svg
   xmlns:dc="http://purl.org/dc/elements/1.1/"
   xmlns:cc="http://creativecommons.org/ns#"
   xmlns:rdf="http://www.w3.org/1999/02/22-rdf-syntax-ns#"
   xmlns:svg="http://www.w3.org/2000/svg"
   xmlns="http://www.w3.org/2000/svg"
   version="1.1"
   id="svg2"
   viewBox="0 0 176.00001 41.559141"
   height="11.728912mm"
   width="49.671112mm">
  <defs
     id="defs4" />
  <metadata
     id="metadata7">
    <rdf:RDF>
      <cc:Work
         rdf:about="">
        <dc:format>image/svg+xml</dc:format>
        <dc:type
           rdf:resource="http://purl.org/dc/dcmitype/StillImage" />
        <dc:title></dc:title>
      </cc:Work>
    </rdf:RDF>
  </metadata>
  <g
     transform="translate(950.28574,-524.99832)"
     id="layer1">
    <path
       id="path4217"
       d="m -938.40511,561.3943 0,-5.16322 -5.94034,0 -5.94035,0 0,-2.809 0,-2.809 5.94035,0 5.94034,0 0,-5.15751 0,-5.15751 -5.94034,0 -5.94035,0 0,-2.809 0,-2.809 5.94035,0 5.94034,0 0,-4.84087 0,-4.84087 5.68708,0.0349 c 4.88132,0.03 5.81085,0.0574 6.56072,0.1938 4.45294,0.80982 8.08838,2.65378 11.17841,5.66989 2.71991,2.65485 4.47114,5.55439 5.53889,9.17088 0.60477,2.04836 0.73202,3.04094 0.73202,5.7101 0,2.12555 -0.0243,2.52388 -0.21646,3.54579 -0.54178,2.88155 -1.60382,5.5374 -3.13563,7.84131 -0.90135,1.35569 -1.6662,2.27122 -2.91882,3.49387 -3.08556,3.01176 -6.7319,4.86125 -11.17841,5.66989 -0.74987,0.13637 -1.6794,0.16383 -6.56072,0.19381 l -5.68708,0.0349 0,-5.16321 z m 11.78859,-8.01827 0,-2.76295 -5.89429,0 -5.8943,0 0,2.76295 0,2.76296 5.8943,0 5.89429,0 0,-2.76296 z m 0,-15.93302 0,-2.76295 -5.89429,0 -5.8943,0 0,2.76295 0,2.76296 5.8943,0 5.89429,0 0,-2.76296 z m 62.55257,17.58412 c -2.91449,-0.37838 -5.64268,-2.33545 -7.01119,-5.02947 -0.7763,-1.52822 -1.13489,-3.59525 -0.94386,-5.44078 0.25446,-2.4584 1.11644,-4.26505 2.81091,-5.89152 0.92686,-0.88965 1.39901,-1.2183 2.49859,-1.73917 2.61084,-1.23677 5.8701,-1.23098 8.50841,0.0151 1.527,0.72121 2.68391,1.71722 3.55029,3.05651 0.35516,0.54902 0.79201,1.40462 0.79201,1.55121 0,0.0211 -0.82495,0.0384 -1.83322,0.0384 l -1.83322,0 -0.2321,-0.39142 c -0.34511,-0.582 -1.20055,-1.39375 -1.81248,-1.7199 -1.56884,-0.83619 -4.04456,-0.87988 -5.75523,-0.10157 -2.50711,1.14066 -3.89285,3.92254 -3.54428,7.11516 0.19548,1.79053 0.71652,2.92178 1.87993,4.08164 1.30901,1.30503 2.44043,1.74296 4.47335,1.73149 1.04227,-0.006 1.36488,-0.0437 1.99499,-0.23357 2.08561,-0.6286 3.55168,-2.33934 3.95116,-4.61056 l 0.0607,-0.34537 -3.50999,0 -3.50999,0 0,-1.19728 0,-1.19727 5.16851,0 5.16852,0 -0.0459,1.45055 c -0.0348,1.09808 -0.095,1.62891 -0.24783,2.18458 -0.79436,2.88809 -3.09077,5.31639 -5.92172,6.26183 -1.33682,0.44644 -3.15144,0.60676 -4.65637,0.41138 z m 46.67503,-0.0368 c -2.94582,-0.49663 -5.63559,-2.55852 -6.86933,-5.26578 -0.68719,-1.50795 -0.97413,-3.37988 -0.79313,-5.17429 0.13843,-1.37233 0.37566,-2.22642 0.93809,-3.37731 0.5568,-1.13936 1.32163,-2.10427 2.33562,-2.94658 1.83785,-1.52669 3.72722,-2.19267 6.2318,-2.19664 2.46827,-0.004 4.32777,0.64237 6.21389,2.15968 3.05172,2.45497 4.1648,6.97336 2.70899,10.99669 -0.88385,2.44263 -3.10692,4.58042 -5.65338,5.43651 -1.4512,0.48787 -3.5181,0.63653 -5.11255,0.36772 z m 3.77712,-2.85636 c 3.3803,-1.041 5.09,-4.41552 4.27022,-8.42832 -0.28814,-1.41047 -1.15119,-2.79869 -2.26373,-3.64126 -1.24389,-0.94205 -2.47456,-1.29038 -4.29745,-1.21634 -1.84376,0.0749 -2.98252,0.55692 -4.20436,1.77973 -0.69225,0.6928 -1.27974,1.67745 -1.55075,2.5991 -0.25986,0.88372 -0.36923,2.29496 -0.25375,3.27412 0.3583,3.03805 2.10048,5.09846 4.84613,5.73133 0.74561,0.17187 2.76279,0.11442 3.45369,-0.0984 z m 14.82784,2.81707 c -1.5315,-0.33952 -2.51124,-0.85482 -3.37445,-1.77482 -0.69695,-0.74281 -1.03522,-1.51925 -1.1869,-2.72436 l -0.0609,-0.48352 1.65617,0 1.65616,0 0.0636,0.34537 c 0.16775,0.9113 0.76568,1.70827 1.54639,2.06121 0.42833,0.19363 0.61773,0.21823 1.68003,0.21823 1.10626,0 1.23732,-0.0188 1.72411,-0.24693 1.1492,-0.53862 1.69713,-1.45746 1.61667,-2.71106 -0.0534,-0.83189 -0.36144,-1.3895 -1.01629,-1.83961 -0.59219,-0.40703 -1.19202,-0.62123 -3.19943,-1.14248 -2.71636,-0.70534 -3.75162,-1.16504 -4.522,-2.00796 -0.80795,-0.88404 -1.12857,-1.77432 -1.13431,-3.14982 -0.007,-1.57035 0.42695,-2.68279 1.44116,-3.69821 0.73647,-0.73735 1.92866,-1.37307 3.01787,-1.60924 1.04651,-0.22691 2.95811,-0.20469 3.99567,0.0464 2.39641,0.58002 3.91446,2.14598 4.16751,4.29903 l 0.0594,0.50576 -1.68779,-0.0252 -1.68778,-0.0252 -0.11326,-0.44428 c -0.32934,-1.29189 -1.45512,-2.03118 -3.07294,-2.01796 -1.75671,0.0144 -2.85106,0.88789 -3.00933,2.4021 -0.0688,0.65834 0.13883,1.44147 0.49416,1.86375 0.30761,0.36559 1.0501,0.84787 1.70018,1.10438 0.26926,0.10624 1.38062,0.41708 2.46968,0.69075 2.26379,0.56887 2.99268,0.88056 3.82898,1.63736 0.96992,0.87773 1.37017,1.90353 1.37082,3.51325 0,1.14546 -0.22639,1.87301 -0.86952,2.78879 -0.79212,1.12794 -1.83803,1.87105 -3.27114,2.32411 -0.93219,0.2947 -3.16885,0.34695 -4.28258,0.10004 z m -79.38881,-9.31132 0,-9.39404 1.56568,0 1.56567,0 0,9.39404 0,9.39403 -1.56567,0 -1.56568,0 0,-9.39403 z m 27.90581,0 0,-9.39404 1.56568,0 1.56567,0 0,9.39404 0,9.39403 -1.56567,0 -1.56568,0 0,-9.39403 z m -46.97017,-0.0461 0,-9.34799 3.43066,7.4e-4 c 3.70914,8.3e-4 4.61778,0.0646 5.96337,0.41862 1.58072,0.41587 2.83634,1.11962 3.97883,2.23005 1.56667,1.52272 2.32454,3.18707 2.57843,5.66246 0.19051,1.85744 -0.11408,3.89676 -0.80553,5.39331 -0.98976,2.1422 -3.05178,3.84567 -5.48163,4.52848 -1.42147,0.39944 -2.23031,0.46118 -6.04927,0.46175 l -3.61486,5.6e-4 0,-9.34799 z m 8.2428,6.77971 c 2.38039,-0.63244 3.8768,-2.23308 4.43706,-4.74614 0.20968,-0.9405 0.20737,-3.01808 -0.004,-3.96764 -0.42314,-1.89729 -1.55404,-3.4217 -3.09723,-4.17493 -1.29966,-0.63437 -1.59371,-0.68527 -4.2135,-0.72941 l -2.32549,-0.0392 0,6.97288 0,6.97287 2.23339,-0.0463 c 1.88495,-0.0391 2.34833,-0.0769 2.97017,-0.24211 z m 45.91105,-6.77971 0,-9.34799 1.51962,0 1.51962,0 0,4.05233 0,4.05233 4.42073,0 4.42072,0 0,-4.05233 0,-4.05233 1.51962,0 1.51963,0 0,9.34799 0,9.34799 -1.51963,0 -1.51962,0 0,-4.14443 0,-4.14443 -4.42072,0 -4.42073,0 0,4.14443 0,4.14443 -1.51962,0 -1.51962,0 0,-9.34799 z m 59.67975,1.19728 0,-8.15071 -2.5327,0 -2.53271,0 0,-1.19728 0,-1.19728 6.53898,0 6.53899,0 0,1.19728 0,1.19728 -2.48666,0 -2.48665,0 0,8.15071 0,8.15071 -1.51963,0 -1.51962,0 0,-8.15071 z m 7.08217,7.94165 c -1.43099,-0.95596 -0.20139,-3.1433 1.35249,-2.40594 0.44339,0.2104 0.68308,0.64323 0.68308,1.23352 0,0.32532 -0.0611,0.58362 -0.18565,0.78519 -0.36478,0.59021 -1.26424,0.77849 -1.84992,0.38723 z m 1.44259,-0.12546 c 0.21762,-0.14259 0.50088,-0.73469 0.50088,-1.04696 0,-0.0993 -0.0673,-0.34868 -0.14957,-0.55426 -0.34762,-0.86883 -1.68317,-0.91987 -2.13371,-0.0815 -0.19334,0.35974 -0.0978,1.23098 0.16573,1.5115 0.38954,0.41464 1.12613,0.49268 1.61667,0.17127 z m -1.24899,-1.04152 0,-0.92642 0.45527,0 c 0.36606,0 0.48336,0.0401 0.59864,0.20469 0.19756,0.28205 0.18074,0.411 -0.0888,0.68054 -0.2302,0.2302 -0.23071,0.23426 -0.0611,0.47933 0.28636,0.41386 0.31081,0.47741 0.18362,0.47724 -0.0663,-9e-5 -0.23833,-0.18659 -0.38228,-0.41444 -0.33133,-0.52445 -0.52111,-0.54314 -0.52111,-0.0513 0,0.19962 -0.0414,0.38857 -0.0921,0.41988 -0.0591,0.0365 -0.0921,-0.27534 -0.0921,-0.8695 z m 0.8084,-0.14881 c 0.11258,-0.0788 0.20469,-0.20023 0.20469,-0.26972 0,-0.21181 -0.27432,-0.41579 -0.55917,-0.41579 -0.25827,0 -0.26972,0.0176 -0.26972,0.41444 0,0.36987 0.0226,0.41444 0.20975,0.41444 0.11537,0 0.30187,-0.0645 0.41445,-0.14337 z"
       style="fill:#ffffff;fill-opacity:1" />
  </g>
</svg>
