<?xml version="1.0" encoding="UTF-8" standalone="no"?>
<svg
   xmlns:dc="http://purl.org/dc/elements/1.1/"
   xmlns:cc="http://creativecommons.org/ns#"
   xmlns:rdf="http://www.w3.org/1999/02/22-rdf-syntax-ns#"
   xmlns:svg="http://www.w3.org/2000/svg"
   xmlns="http://www.w3.org/2000/svg"
   version="1.1"
   id="svg2"
   viewBox="0 0 1911 451.24772"
   height="127.35213mm"
   width="539.32666mm">
  <defs
     id="defs4" />
  <metadata
     id="metadata7">
    <rdf:RDF>
      <cc:Work
         rdf:about="">
        <dc:format>image/svg+xml</dc:format>
        <dc:type
           rdf:resource="http://purl.org/dc/dcmitype/StillImage" />
        <dc:title></dc:title>
      </cc:Work>
    </rdf:RDF>
  </metadata>
  <g
     transform="translate(950.2858,-115.30979)"
     id="layer1">
    <path
       id="path4217"
       d="m -821.2858,510.49558 0,-56.06193 -64.5,0 -64.5,0 0,-30.5 0,-30.5 64.5,0 64.5,0 0,-56 0,-56 -64.5,0 -64.5,0 0,-30.5 0,-30.5 64.5,0 64.5,0 0,-52.56193 0,-52.56193 61.75,0.37919 c 53.00116,0.32547 63.094,0.62361 71.23606,2.10433 48.34982,8.79295 87.82322,28.81456 121.37464,61.56337 29.53269,28.82622 48.54738,60.3093 60.14101,99.57697 6.56657,22.24098 7.9482,33.01841 7.9482,62 0,23.07915 -0.26402,27.40425 -2.35024,38.5 -5.88271,31.28776 -17.41425,60.12485 -34.04652,85.14062 -9.78691,14.72002 -18.0916,24.66086 -31.69245,37.93635 -33.50293,32.70148 -73.09471,52.78313 -121.37464,61.56337 -8.14206,1.48072 -18.2349,1.77886 -71.23606,2.10433 l -61.75,0.37919 0,-56.06193 z m 128,-87.06193 0,-30 -64,0 -64,0 0,30 0,30 64,0 64,0 0,-30 z m 0,-173 0,-30 -64,0 -64,0 0,30 0,30 64,0 64,0 0,-30 z m 679.1929,190.92754 c -31.64543,-4.10847 -61.26796,-25.3582 -76.12718,-54.60982 -8.42907,-16.59334 -12.3226,-39.03705 -10.24843,-59.07572 2.76296,-26.6932 12.12225,-46.30973 30.52079,-63.96981 10.06376,-9.65982 15.19029,-13.22822 27.12952,-18.88389 28.3484,-13.42874 63.7373,-13.36583 92.3839,0.16422 16.5801,7.83092 29.1418,18.6455 38.548903,33.18746 3.8563,5.96125 8.5996,15.2513 8.5996,16.84293 0,0.2294 -8.9572,0.41709 -19.905003,0.41709 l -19.905,0 -2.5201,-4.25 c -3.7472,-6.31936 -13.0356,-15.13326 -19.6799,-18.67464 -17.0344,-9.07925 -43.9156,-9.55365 -62.49,-1.10283 -27.22212,12.38528 -42.26839,42.59074 -38.48366,77.25612 2.1226,19.44141 7.77997,31.72449 20.41219,44.31823 14.21324,14.16994 26.49813,18.92502 48.5714699,18.80042 C 14.0311,411.71705 17.534,411.30695 24.3757,409.24488 47.0212,402.4196 62.9397,383.84439 67.2772,359.18365 l 0.6596,-3.75 -38.1113,0 -38.1113,0 0,-13 0,-13 56.1195,0 56.1195,0 -0.4988,15.75 c -0.3776,11.92292 -1.0314,17.68665 -2.6909,23.72012 -8.625097,31.35872 -33.5594,57.7251 -64.2978,67.99061 -14.5151,4.84752 -34.2182001,6.58827 -50.5586,4.46681 z m 506.7953,-0.39901 c -31.9856,-5.39247 -61.191,-27.78032 -74.5869,-57.17566 -7.4615,-16.37321 -10.577,-36.69856 -8.6117,-56.18217 1.503,-14.9007 4.0789,-24.17436 10.1857,-36.6707 6.0457,-12.37113 14.3502,-22.84806 25.36,-31.99383 19.9553,-16.57666 40.47,-23.80787 67.6647,-23.85098 26.8003,-0.0425 46.9907,6.97483 67.4701,23.44964 33.1354,26.65605 45.2212,75.71647 29.4141,119.4016 -9.5968,26.52202 -33.7348,49.734 -61.3842,59.02936 -15.757,5.29728 -38.1993,6.91147 -55.5118,3.99274 z m 41.0118,-31.01421 c 36.7031,-11.30318 55.267,-47.94352 46.3658,-91.51432 -3.1286,-15.31481 -12.4995,-30.38809 -24.5794,-39.5367 -13.5061,-10.22872 -26.8687,-14.01084 -46.6615,-13.20698 -20.0195,0.81307 -32.3841,6.04709 -45.6508,19.32426 -7.5164,7.52238 -13.8954,18.21369 -16.838,28.22092 -2.8215,9.5954 -4.0091,24.91853 -2.7552,35.55028 3.8904,32.98692 22.8069,55.35882 52.6191,62.23051 8.0958,1.86608 29.9982,1.24231 37.5,-1.06797 z m 161,30.58762 c -16.629,-3.6865 -27.2669,-9.28162 -36.6396,-19.27097 -7.5675,-8.06543 -11.2404,-16.49599 -12.8873,-29.58097 l -0.6608,-5.25 17.9826,0 17.9825,0 0.6903,3.75 c 1.8215,9.89486 8.3137,18.54832 16.7907,22.38045 4.6507,2.10242 6.7072,2.36955 18.2416,2.36955 12.0118,0 13.4348,-0.20381 18.7203,-2.6811 12.478,-5.84835 18.4274,-15.82511 17.5538,-29.43663 -0.5796,-9.03257 -3.9245,-15.08705 -11.0349,-19.97435 -6.4299,-4.41952 -12.9429,-6.74527 -34.7392,-12.40501 -29.4941,-7.6586 -40.7349,-12.65 -49.0997,-21.80236 -8.7727,-9.59879 -12.2539,-19.26543 -12.3163,-34.20055 -0.071,-17.05085 4.6358,-29.12965 15.6481,-40.15506 7.9965,-8.00608 20.9413,-14.9087 32.7679,-17.47301 11.3629,-2.46377 32.119,-2.22256 43.3848,0.50417 26.0201,6.29776 42.503,23.3009 45.2506,46.67868 l 0.6454,5.49142 -18.3259,-0.2731 -18.3259,-0.2731 -1.2297,-4.82397 c -3.576,-14.02733 -15.7997,-22.05446 -33.3659,-21.91093 -19.0743,0.15585 -30.9567,9.64065 -32.6752,26.08193 -0.7471,7.14822 1.5074,15.65137 5.3656,20.23652 3.34,3.96947 11.4019,9.20613 18.4605,11.99126 2.9236,1.15359 14.9907,4.52866 26.8157,7.50015 24.5801,6.17672 32.4943,9.56101 41.5748,17.77835 10.5314,9.53039 14.8773,20.6684 14.8843,38.14669 0,12.43735 -2.4581,20.33704 -9.4412,30.28058 -8.6008,12.24708 -19.9572,20.31572 -35.5179,25.23507 -10.1216,3.19983 -34.4072,3.76717 -46.5,1.08629 z m -862,-101.10194 0,-102 17,0 17,0 0,102 0,102 -17,0 -17,0 0,-102 z m 303,0 0,-102 17,0 17,0 0,102 0,102 -17,0 -17,0 0,-102 z m -510,-0.5 0,-101.5 37.25,0.008 c 40.27367,0.009 50.13957,0.70144 64.75,4.54532 17.1633,4.51551 30.79681,12.15684 43.20186,24.21385 17.01086,16.53358 25.23981,34.60505 27.9965,61.48263 2.06852,20.168 -1.23867,42.31086 -8.74642,58.5604 -10.74672,23.25985 -33.13606,41.75611 -59.51921,49.16996 -15.43429,4.33714 -24.21659,5.00752 -65.68273,5.01374 l -39.25,0.006 0,-101.5 z m 89.5,73.61382 c 25.84613,-6.867 42.09404,-24.24675 48.17738,-51.53347 2.27664,-10.21181 2.25162,-32.77015 -0.0478,-43.08035 -4.59441,-20.60072 -16.8737,-37.15268 -33.62961,-45.33126 -14.11162,-6.8879 -17.30438,-7.44061 -45.75,-7.91987 l -25.25,-0.42542 0,75.71117 0,75.71117 24.25,-0.50323 c 20.46672,-0.42472 25.49809,-0.83484 32.25,-2.62874 z m 498.5,-73.61382 0,-101.5 16.5,0 16.5,0 0,44 0,44 48,0 48,0 0,-44 0,-44 16.5,0 16.5,0 0,101.5 0,101.5 -16.5,0 -16.5,0 0,-45 0,-45 -48,0 -48,0 0,45 0,45 -16.5,0 -16.5,0 0,-101.5 z m 648,13 0,-88.5 -27.5,0 -27.5,0 0,-13 0,-13 71,0 71,0 0,13 0,13 -27,0 -27,0 0,88.5 0,88.5 -16.5,0 -16.5,0 0,-88.5 z m 76.8979,86.23007 c -15.5376,-10.3798 -2.1867,-34.12984 14.6852,-26.12361 4.8144,2.28458 7.4169,6.98423 7.4169,13.39354 0,3.5323 -0.6631,6.33687 -2.0158,8.5255 -3.9607,6.40855 -13.727,8.45288 -20.0863,4.20457 z m 15.6635,-1.36226 c 2.3629,-1.5482 5.4386,-7.97716 5.4386,-11.36781 0,-1.07774 -0.7308,-3.78592 -1.624,-6.01818 -3.7745,-9.43363 -18.2758,-9.98783 -23.1678,-0.88542 -2.0992,3.90605 -1.062,13.36587 1.7995,16.41182 4.2296,4.50216 12.2275,5.34944 17.5537,1.85959 z m -13.5614,-11.30879 0,-10.05902 4.9433,0 c 3.9746,0 5.2483,0.43551 6.5,2.22251 2.1451,3.06256 1.9624,4.46269 -0.9642,7.38927 -2.4995,2.49952 -2.5051,2.54359 -0.6639,5.20454 3.1093,4.4937 3.3748,5.18378 1.9938,5.18189 -0.7199,-9.8e-4 -2.5878,-2.02598 -4.1508,-4.5 -3.5976,-5.69439 -5.6582,-5.89732 -5.6582,-0.55723 0,2.16754 -0.45,4.2191 -1,4.55902 -0.6414,0.39638 -1,-2.98962 -1,-9.44098 z m 8.7775,-1.61572 c 1.2224,-0.85619 2.2225,-2.17405 2.2225,-2.92858 0,-2.29989 -2.9785,-4.51472 -6.0714,-4.51472 -2.8043,0 -2.9286,0.19106 -2.9286,4.5 0,4.0161 0.2449,4.5 2.2775,4.5 1.2526,0 3.2776,-0.70052 4.5,-1.5567 z"
       style="fill:#ffffff;fill-opacity:1" />
  </g>
</svg>
